<svg xmlns="http://www.w3.org/2000/svg" xmlns:xlink="http://www.w3.org/1999/xlink" width="500" zoomAndPan="magnify" viewBox="0 0 375 374.999991" height="500" preserveAspectRatio="xMidYMid meet" version="1.0"><defs><g/></defs><g fill="#16a34a" fill-opacity="1"><g transform="translate(92.81877, 181.236595)"><g><path d="M 3.28125 -74.171875 L 26.078125 -74.171875 C 29.703125 -74.171875 32.503906 -73.347656 34.484375 -71.703125 C 36.472656 -70.066406 37.8125 -67.765625 38.5 -64.796875 C 39.195312 -61.835938 39.546875 -58.054688 39.546875 -53.453125 C 39.546875 -49.242188 39 -45.957031 37.90625 -43.59375 C 36.8125 -41.238281 34.910156 -39.601562 32.203125 -38.6875 C 34.453125 -38.21875 36.078125 -37.09375 37.078125 -35.3125 C 38.085938 -33.53125 38.59375 -31.113281 38.59375 -28.0625 L 38.421875 0 L 23.921875 0 L 23.921875 -29.015625 C 23.921875 -31.085938 23.515625 -32.410156 22.703125 -32.984375 C 21.898438 -33.554688 20.4375 -33.84375 18.3125 -33.84375 L 18.3125 0 L 3.28125 0 Z M 21.9375 -46.71875 C 24.007812 -46.71875 25.046875 -48.960938 25.046875 -53.453125 C 25.046875 -55.398438 24.957031 -56.863281 24.78125 -57.84375 C 24.601562 -58.820312 24.285156 -59.5 23.828125 -59.875 C 23.367188 -60.25 22.707031 -60.4375 21.84375 -60.4375 L 18.390625 -60.4375 L 18.390625 -46.71875 Z M 21.9375 -46.71875 "/></g></g></g><g fill="#16a34a" fill-opacity="1"><g transform="translate(130.291579, 181.236595)"><g><path d="M 3.28125 0 L 3.28125 -74.171875 L 32.984375 -74.171875 L 32.984375 -59.84375 L 18.390625 -59.84375 L 18.390625 -45.421875 L 32.375 -45.421875 L 32.375 -31.421875 L 18.390625 -31.421875 L 18.390625 -14.421875 L 33.9375 -14.421875 L 33.9375 0 Z M 3.28125 0 "/></g></g></g><g fill="#16a34a" fill-opacity="1"><g transform="translate(162.152046, 181.236595)"><g><path d="M 3.28125 0 L 3.28125 -74.171875 L 18.5625 -74.171875 L 25.390625 -38.6875 L 25.390625 -74.171875 L 39.71875 -74.171875 L 39.71875 0 L 25.21875 0 L 17.78125 -37.125 L 17.78125 0 Z M 3.28125 0 "/></g></g></g><g fill="#16a34a" fill-opacity="1"><g transform="translate(201.438071, 181.236595)"><g><path d="M 3.28125 -74.171875 L 23.75 -74.171875 C 29.039062 -74.171875 33.007812 -72.703125 35.65625 -69.765625 C 38.300781 -66.828125 39.65625 -62.484375 39.71875 -56.734375 L 39.890625 -22.015625 C 39.953125 -14.703125 38.6875 -9.203125 36.09375 -5.515625 C 33.5 -1.835938 29.207031 0 23.21875 0 L 3.28125 0 Z M 20.8125 -13.125 C 23.507812 -13.125 24.859375 -14.445312 24.859375 -17.09375 L 24.859375 -55.34375 C 24.859375 -57.007812 24.726562 -58.257812 24.46875 -59.09375 C 24.21875 -59.9375 23.742188 -60.5 23.046875 -60.78125 C 22.359375 -61.070312 21.296875 -61.21875 19.859375 -61.21875 L 18.21875 -61.21875 L 18.21875 -13.125 Z M 20.8125 -13.125 "/></g></g></g><g fill="#16a34a" fill-opacity="1"><g transform="translate(240.292374, 181.236595)"><g><path d="M 1.296875 0 L 8.46875 -74.171875 L 33.59375 -74.171875 L 40.671875 0 L 26.59375 0 L 25.5625 -12 L 16.578125 -12 L 15.71875 0 Z M 17.703125 -23.828125 L 24.4375 -23.828125 L 21.15625 -61.5625 L 20.46875 -61.5625 Z M 17.703125 -23.828125 "/></g></g></g><g fill="#16a34a" fill-opacity="1"><g transform="translate(79.482833, 262.98659)"><g><path d="M 18.5625 0.6875 C 13.207031 0.6875 9.21875 -1.195312 6.59375 -4.96875 C 3.976562 -8.738281 2.671875 -14.453125 2.671875 -22.109375 L 2.671875 -54.046875 C 2.671875 -60.898438 4.195312 -66.082031 7.25 -69.59375 C 10.300781 -73.101562 14.847656 -74.859375 20.890625 -74.859375 C 25.785156 -74.859375 29.582031 -73.878906 32.28125 -71.921875 C 34.988281 -69.960938 36.859375 -67.113281 37.890625 -63.375 C 38.929688 -59.632812 39.453125 -54.828125 39.453125 -48.953125 L 24.953125 -48.953125 L 24.953125 -55.609375 C 24.953125 -57.390625 24.707031 -58.769531 24.21875 -59.75 C 23.726562 -60.726562 22.851562 -61.21875 21.59375 -61.21875 C 18.769531 -61.21875 17.359375 -59.375 17.359375 -55.6875 L 17.359375 -19.765625 C 17.359375 -17.523438 17.644531 -15.828125 18.21875 -14.671875 C 18.789062 -13.523438 19.796875 -12.953125 21.234375 -12.953125 C 22.679688 -12.953125 23.691406 -13.523438 24.265625 -14.671875 C 24.835938 -15.828125 25.125 -17.523438 25.125 -19.765625 L 25.125 -30.390625 L 21.15625 -30.390625 L 21.15625 -43.171875 L 39.28125 -43.171875 L 39.28125 0 L 33.328125 0 L 30.828125 -6.21875 C 28.179688 -1.613281 24.09375 0.6875 18.5625 0.6875 Z M 18.5625 0.6875 "/></g></g></g><g fill="#16a34a" fill-opacity="1"><g transform="translate(117.646396, 262.98659)"><g><path d="M 3.28125 0 L 3.28125 -74.171875 L 32.984375 -74.171875 L 32.984375 -59.84375 L 18.390625 -59.84375 L 18.390625 -45.421875 L 32.375 -45.421875 L 32.375 -31.421875 L 18.390625 -31.421875 L 18.390625 -14.421875 L 33.9375 -14.421875 L 33.9375 0 Z M 3.28125 0 "/></g></g></g><g fill="#16a34a" fill-opacity="1"><g transform="translate(149.506863, 262.98659)"><g><path d="M 20.890625 0.6875 C 14.160156 0.6875 9.296875 -0.976562 6.296875 -4.3125 C 3.304688 -7.65625 1.8125 -13.039062 1.8125 -20.46875 L 1.8125 -27.71875 L 16.40625 -27.71875 L 16.40625 -18.484375 C 16.40625 -14.796875 17.585938 -12.953125 19.953125 -12.953125 C 21.273438 -12.953125 22.191406 -13.335938 22.703125 -14.109375 C 23.222656 -14.890625 23.484375 -16.203125 23.484375 -18.046875 C 23.484375 -20.460938 23.195312 -22.460938 22.625 -24.046875 C 22.050781 -25.628906 21.316406 -26.953125 20.421875 -28.015625 C 19.523438 -29.078125 17.925781 -30.734375 15.625 -32.984375 L 9.234375 -39.375 C 4.285156 -44.207031 1.8125 -49.5625 1.8125 -55.4375 C 1.8125 -61.769531 3.265625 -66.585938 6.171875 -69.890625 C 9.078125 -73.203125 13.320312 -74.859375 18.90625 -74.859375 C 25.582031 -74.859375 30.390625 -73.085938 33.328125 -69.546875 C 36.265625 -66.003906 37.734375 -60.460938 37.734375 -52.921875 L 22.625 -52.921875 L 22.53125 -58.015625 C 22.53125 -58.992188 22.253906 -59.769531 21.703125 -60.34375 C 21.160156 -60.925781 20.398438 -61.21875 19.421875 -61.21875 C 18.273438 -61.21875 17.410156 -60.898438 16.828125 -60.265625 C 16.253906 -59.628906 15.96875 -58.765625 15.96875 -57.671875 C 15.96875 -55.253906 17.351562 -52.753906 20.125 -50.171875 L 28.75 -41.875 C 30.769531 -39.914062 32.441406 -38.054688 33.765625 -36.296875 C 35.085938 -34.546875 36.148438 -32.472656 36.953125 -30.078125 C 37.753906 -27.691406 38.15625 -24.863281 38.15625 -21.59375 C 38.15625 -14.28125 36.816406 -8.738281 34.140625 -4.96875 C 31.472656 -1.195312 27.054688 0.6875 20.890625 0.6875 Z M 20.890625 0.6875 "/></g></g></g><g fill="#16a34a" fill-opacity="1"><g transform="translate(185.598179, 262.98659)"><g><path d="M 9.671875 0 L 9.671875 -59.921875 L 0.859375 -59.921875 L 0.859375 -74.171875 L 33.328125 -74.171875 L 33.328125 -59.921875 L 24.515625 -59.921875 L 24.515625 0 Z M 9.671875 0 "/></g></g></g><g fill="#16a34a" fill-opacity="1"><g transform="translate(216.077146, 262.98659)"><g><path d="M 20.984375 0.6875 C 14.992188 0.6875 10.441406 -1.140625 7.328125 -4.796875 C 4.222656 -8.453125 2.671875 -13.585938 2.671875 -20.203125 L 2.671875 -55.515625 C 2.671875 -61.910156 4.222656 -66.734375 7.328125 -69.984375 C 10.441406 -73.234375 14.992188 -74.859375 20.984375 -74.859375 C 26.972656 -74.859375 31.519531 -73.234375 34.625 -69.984375 C 37.726562 -66.734375 39.28125 -61.910156 39.28125 -55.515625 L 39.28125 -20.203125 C 39.28125 -13.523438 37.726562 -8.375 34.625 -4.75 C 31.519531 -1.125 26.972656 0.6875 20.984375 0.6875 Z M 20.984375 -12.953125 C 22.304688 -12.953125 23.195312 -13.523438 23.65625 -14.671875 C 24.113281 -15.828125 24.34375 -17.441406 24.34375 -19.515625 L 24.34375 -55.78125 C 24.34375 -57.394531 24.125 -58.703125 23.6875 -59.703125 C 23.257812 -60.710938 22.382812 -61.21875 21.0625 -61.21875 C 18.59375 -61.21875 17.359375 -59.347656 17.359375 -55.609375 L 17.359375 -19.421875 C 17.359375 -17.296875 17.613281 -15.6875 18.125 -14.59375 C 18.644531 -13.5 19.597656 -12.953125 20.984375 -12.953125 Z M 20.984375 -12.953125 "/></g></g></g><g fill="#16a34a" fill-opacity="1"><g transform="translate(254.327041, 262.98659)"><g><path d="M 3.28125 -74.171875 L 26.078125 -74.171875 C 29.703125 -74.171875 32.503906 -73.347656 34.484375 -71.703125 C 36.472656 -70.066406 37.8125 -67.765625 38.5 -64.796875 C 39.195312 -61.835938 39.546875 -58.054688 39.546875 -53.453125 C 39.546875 -49.242188 39 -45.957031 37.90625 -43.59375 C 36.8125 -41.238281 34.910156 -39.601562 32.203125 -38.6875 C 34.453125 -38.21875 36.078125 -37.09375 37.078125 -35.3125 C 38.085938 -33.53125 38.59375 -31.113281 38.59375 -28.0625 L 38.421875 0 L 23.921875 0 L 23.921875 -29.015625 C 23.921875 -31.085938 23.515625 -32.410156 22.703125 -32.984375 C 21.898438 -33.554688 20.4375 -33.84375 18.3125 -33.84375 L 18.3125 0 L 3.28125 0 Z M 21.9375 -46.71875 C 24.007812 -46.71875 25.046875 -48.960938 25.046875 -53.453125 C 25.046875 -55.398438 24.957031 -56.863281 24.78125 -57.84375 C 24.601562 -58.820312 24.285156 -59.5 23.828125 -59.875 C 23.367188 -60.25 22.707031 -60.4375 21.84375 -60.4375 L 18.390625 -60.4375 L 18.390625 -46.71875 Z M 21.9375 -46.71875 "/></g></g></g></svg>